<svg width="182" height="32" viewBox="0 0 182 32" xmlns="http://www.w3.org/2000/svg">
  <text
    x="0"
    y="26"
    font-family="Poppins, sans-serif"
    font-size="32px"
    font-weight="600"
    letter-spacing="-1px"
    fill="#000000">
    PRANAV R
  </text>
  <g transform="translate(158, 4)">
    <path
      fill="#000000"
      d="M23 12l-2.44-2.79.34-3.69-3.61-.82-1.89-3.2L12 2.75 8.6 1.5 6.71 4.7l-3.61.81.34 3.68L1 12l2.44 2.79-.34 3.7 3.61.82L8.6 22.5l3.4-1.25 3.4 1.25 1.89-3.2 3.61-.82-.34-3.69L23 12zm-12.91 4.72l-3.8-3.81 1.48-1.48 2.32 2.33 5.85-5.87 1.48 1.48-7.33 7.35z"
    />
  </g>
</svg>